<svg width="40" height="40" viewBox="0 0 40 40" fill="none" xmlns="http://www.w3.org/2000/svg">
<circle cx="20" cy="20" r="20" fill="white"/>
<path d="M16.7344 25V16.8242H14.1914V25H16.7344ZM15.4492 15.7305C16.2695 15.7305 16.9258 15.0469 16.9258 14.2266C16.9258 13.4336 16.2695 12.7773 15.4492 12.7773C14.6562 12.7773 14 13.4336 14 14.2266C14 15.0469 14.6562 15.7305 15.4492 15.7305ZM26.2227 25H26.25V20.5156C26.25 18.3281 25.7578 16.6328 23.1875 16.6328C21.957 16.6328 21.1367 17.3164 20.7812 17.9453H20.7539V16.8242H18.3203V25H20.8633V20.9531C20.8633 19.8867 21.0547 18.875 22.3672 18.875C23.6797 18.875 23.707 20.0781 23.707 21.0352V25H26.2227Z" fill="#FF5000"/>
</svg>
